<svg width="76" height="16" viewBox="0 0 76 16" fill="none" xmlns="http://www.w3.org/2000/svg">
<path d="M8.28721 0C12.8626 0 16.5744 3.58319 16.5744 7.99327C16.5744 12.4125 12.8626 15.9957 8.28721 15.9957C3.71179 15.9957 0 12.4125 0 7.99327C0 3.58319 3.71179 0 8.28721 0Z" fill="#00AED6"/>
<path fill-rule="evenodd" clip-rule="evenodd" d="M13.1199 7.75467C13.0556 6.73484 12.1644 5.95389 11.1078 5.99983H5.87088C5.67794 5.99983 5.52175 5.85282 5.52175 5.66907C5.52175 5.48532 5.67794 5.32913 5.87088 5.32913H11.1721C11.1446 4.64005 10.6576 4.05204 9.96855 3.86829C8.41584 3.60185 6.83558 3.60185 5.29206 3.86829C4.41005 4.07042 3.75774 4.77787 3.62911 5.64151C3.39023 7.2126 3.39023 8.81125 3.62911 10.3732C3.82205 11.2919 4.57543 11.9994 5.52175 12.1556C7.44196 12.3944 9.38054 12.3944 11.3007 12.1556C12.1552 11.9902 12.7983 11.3103 12.8994 10.4742C13.074 9.58302 13.1475 8.66425 13.1199 7.75467ZM11.3926 8.87557V9.16038C11.3926 9.34414 11.2364 9.50033 11.0527 9.50033C10.8597 9.50033 10.7036 9.34414 10.7036 9.16038V8.87557C10.5933 8.7745 10.529 8.63669 10.529 8.49887C10.529 8.22324 10.7679 7.99355 11.0527 7.99355C11.3375 7.99355 11.5672 8.22324 11.5672 8.49887C11.5672 8.63669 11.5029 8.7745 11.3926 8.87557Z" fill="white"/>
<path d="M40.1773 7.10203C40.1865 5.69632 39.0196 4.54786 37.568 4.53867C36.1164 4.52949 34.9312 5.65957 34.9128 7.05609C34.9036 8.46181 36.0704 9.61026 37.5313 9.61945C37.5404 9.61945 37.5588 9.61945 37.568 9.61945C38.9461 9.69295 40.1222 8.66394 40.1957 7.34091C40.2048 7.25822 40.2048 7.17553 40.2048 7.10203H40.1773ZM32.3586 7.10203C32.3586 4.42842 34.5453 2.39795 37.568 2.39795C40.5907 2.39795 42.7774 4.4468 42.7774 7.10203C42.7774 9.74808 40.6183 11.8061 37.568 11.8061C34.5269 11.8061 32.3586 9.75727 32.3586 7.10203Z" fill="black"/>
<path d="M28.2151 7.58889C28.2151 8.68222 27.0575 9.58261 25.5875 9.58261C24.2369 9.71124 23.0333 8.76491 22.8955 7.46026C22.8772 7.33163 22.8772 7.19382 22.8863 7.06519C22.8863 5.61354 23.9889 4.61209 25.6886 4.61209C27.0759 4.61209 28.2151 5.52166 28.2151 6.55987V7.58889ZM28.3254 2.38867V3.44525C27.4801 2.71024 26.3684 2.33355 25.2384 2.39786C22.5556 2.42542 20.4057 4.53859 20.4241 7.12032C20.4516 9.71124 22.6475 11.7877 25.3211 11.7601C26.4236 11.8152 27.4985 11.411 28.2886 10.6668V11.5671C28.2886 12.7799 27.1953 13.6803 25.7621 13.6803C24.6595 13.7538 23.5846 13.3863 22.7761 12.6605L21.0948 14.2224C22.3535 15.4168 24.0624 16.0599 25.8264 15.9956C28.7664 15.9956 30.7877 14.0938 30.7877 11.5488V2.38867H28.3254Z" fill="black"/>
<path d="M44.2933 2.6645H46.7648V3.45464H46.8015C47.6101 2.738 48.685 2.36131 49.7783 2.41643C52.4703 2.50831 54.5651 4.69498 54.464 7.29508C54.3721 9.74819 52.3325 11.7235 49.7783 11.8154C48.7309 11.843 47.7111 11.503 46.8934 10.8783V15.3251H44.3209L44.2933 2.6645ZM49.3741 4.61229C47.9959 4.61229 46.875 5.54024 46.875 6.5417V7.67178C46.875 8.74674 47.9867 9.62875 49.3924 9.62875C50.8257 9.70225 52.0568 8.63648 52.1303 7.24915C52.2039 5.86181 51.0922 4.68579 49.6589 4.61229C49.567 4.6031 49.4843 4.6031 49.3924 4.61229H49.3741Z" fill="black"/>
<path d="M59.4162 6.23848C61.1067 6.01798 61.612 5.78829 61.612 5.3289C61.612 4.74089 60.9689 4.39176 59.9766 4.39176C58.9017 4.30907 57.9278 4.98896 57.6705 5.9996L55.245 5.51266C55.5849 3.70269 57.5235 2.40723 59.9031 2.40723C62.5951 2.40723 64.2672 3.73944 64.2672 5.89854V11.5581H61.9519V10.5659H61.9244C61.1342 11.4203 59.9858 11.8797 58.8098 11.797C56.7701 11.797 55.3552 10.7221 55.3552 9.1326C55.3552 7.53394 56.5129 6.62436 59.4162 6.23848ZM61.8141 7.17562H61.7866C61.5569 7.49719 61.0883 7.68095 59.8112 7.90145C58.3045 8.16789 57.744 8.4619 57.744 8.97641C57.744 9.5001 58.1942 9.74817 59.1681 9.74817C60.6473 9.74817 61.7957 9.08666 61.7957 8.24139L61.8141 7.17562Z" fill="black"/>
<path d="M68.9344 11.0529L64.6714 2.66455H67.5104L70.3034 8.48034H70.3493L73.1056 2.66455H75.9629L69.5776 15.3251H66.7386L68.9344 11.0529Z" fill="black"/>
</svg>
