<svg id="Layer_1" data-name="Layer 1" xmlns="http://www.w3.org/2000/svg" viewBox="0 0 5495.19 709.84"><defs><style>.cls-1{fill:#fff;}</style></defs><path class="cls-1" d="M2488.55,788.1c4.74-13.64,8.54-25.08,12.67-36.39q65.42-179.49,130.94-358.94c1-2.68,2-5.33,3.12-8,6.25-15.14,17.54-22.84,34-22.78,23.87.08,47.73.3,71.6.3q214.29,0,428.57,0c22.8,0,45.61.26,68.39-.47,20.69-.66,33.47,9,41,27.57q21.34,53,43.15,105.76,53.37,129.24,107,258.4c4.08,9.83,8.75,19.41,13.32,29.48,4.32-2.07,4.38-6,5.5-9q49.07-132.64,97.93-265.36c14.22-38.73,28-77.63,42-116.45.84-2.34,1.84-4.63,2.7-7,5.86-16,17.17-23.55,34.3-23.33q54.49.74,109,.77c52.37,0,104.73-.22,157.1-.35,3.89,0,7.79,0,11.25,0a12.38,12.38,0,0,1,1,1.34,2.33,2.33,0,0,1,.31,1,6.37,6.37,0,0,1-.23,2.1c-51.52,140.64-103.05,281.27-155,423-4.32.14-8.83.42-13.34.43q-238.86,0-477.73,0c-43.45,0-86.89.51-130.34.77q-3.21,0-6.41,0c-25-.21-35.29-7.28-44.69-30.3q-40.37-98.82-80.82-197.58c-7.69-18.77-15.59-37.45-23.43-56.16-1-2.47-2.3-4.86-4.19-8.84-2,4.6-3.55,7.67-4.73,10.87q-46.93,127.17-93.81,254.37c-1.23,3.34-2.59,6.62-3.8,10-4.47,12.3-13.46,17.83-26.29,17.67-19.93-.27-39.87-.75-59.8-.77q-133.6-.12-267.19-.12C2504.48,790.16,2497.5,788.94,2488.55,788.1Z" transform="translate(-101.91 -350.96)"/><path class="cls-1" d="M919.12,373.36c-9.64,20-18.06,37.64-26.59,55.2Q837.72,541.41,782.87,654.24A54.54,54.54,0,0,0,779,663c-.44,1.54.6,3.49,1.29,6.73,9.47-6.82,17.92-12.61,26.06-18.81q178.53-135.93,356.94-272c15-11.44,30.83-17.41,50.19-17.18,65.19.77,130.41-.08,195.61.4,60.54.45,121.07,1.75,181.6,2.82,16.73.3,33.44,1.13,50.16,1.76.93,0,1.85.53,4.72,1.4L1206.41,703.84c14.79,28.51,29.29,56.48,44.81,86.41h-14q-168.9,0-337.79.07c-22.78,0-45.56,1-68.34,1.22a222.9,222.9,0,0,1-22.37-1.08c-20.08-1.76-33.21-12.71-41.35-30.84-4.06-9-9.2-17.62-14.23-26.18-1.68-2.84-4.54-5-8.12-8.77-1.57,6.83-2.62,11.85-3.87,16.82-7.23,28.7-24.84,45-54.23,48.13-17.29,1.82-34.83,2-52.25,1.88-33.11-.17-66.21-1.52-99.33-1.56-95.84-.11-191.68.18-287.53.31H233.18c3.24-9.39,5.15-17.71,8.82-25.17q58.49-118.8,117.46-237.36,32.46-65.55,64.85-131.13c1.74-3.5,3.55-7,5.51-10.37,6.25-10.83,15.49-15.94,28.19-15.75,27.43.4,54.87.4,82.3.41q177.45.06,354.89.11C902.51,371,909.82,372.4,919.12,373.36Z" transform="translate(-101.91 -350.96)"/><path class="cls-1" d="M2039.4,621.9h351.51c-.61,2.81-.66,4.48-1.32,5.87-16.34,34.78-33,69.44-49,104.35-4.53,9.83-12.13,14.7-21.92,16.71a103.22,103.22,0,0,1-20.13,2.12q-116.49.38-233,.41c-19.59,0-39.18,0-58.77-.38-17-.32-29.24,6-36.81,21.95-5.21,11-14.58,17-27.43,17q-171,.08-342,.33c-2.47,0-4.93-.3-8.43-.53,1.57-4.09,2.74-7.71,4.31-11.14q52.23-114.06,104.54-228.07,37.62-82,75.26-164c13.53-29.56,25.84-37.08,58.42-35.33,3.2.17,6.41.11,9.61.11l675.51.35h13.58c-1.09,3.34-1.56,5.71-2.58,7.82-18.39,37.75-37.11,75.35-55.08,113.29-4.54,9.6-11.16,14.22-21.18,15.05-3.55.29-7.11.6-10.66.61q-123.45.24-246.89.39c-20.3,0-40.61-.39-60.91-.55-9.7-.08-19.66.2-27.64,6.19-5.52,4.15-11,9.49-14.09,15.52-18.4,35.76-36.1,71.87-54,107.88C2039.85,618.71,2039.84,619.77,2039.4,621.9Z" transform="translate(-101.91 -350.96)"/><path class="cls-1" d="M1471.64,1048.16c2-4.91,3.3-8.15,4.74-11.3,25-54.31,50.15-108.56,74.95-163,2.86-6.28,5.93-9,13.37-9q174.77.43,349.53.22c2.46,0,4.92.28,9,.52-5.91,14.69-11.52,28.65-17.63,43.83H2305c-.75,2.67-1,4.41-1.71,5.91-18.71,38.38-37.68,76.64-56.08,115.17-4.55,9.52-11.75,14-21.37,15.43a129.09,129.09,0,0,1-19.13,1.56q-361.28.4-722.54.65Z" transform="translate(-101.91 -350.96)"/><path class="cls-1" d="M3120.8,866.42h597.6a76.84,76.84,0,0,1-2,8.23c-19.16,52.06-38.55,104-57.44,156.2-4.05,11.17-11.4,16.7-22.63,18a116,116,0,0,1-12.76.83q-201.39.35-402.78.54a63.33,63.33,0,0,1-15.78-1.8c-6.81-1.76-11.67-6.06-14.53-13q-34.17-82.29-68.64-164.46A38,38,0,0,1,3120.8,866.42Z" transform="translate(-101.91 -350.96)"/><path class="cls-1" d="M677.84,867.11c-2.93,6.19-4.7,10-6.53,13.81-16.91,35.28-33.91,70.52-50.7,105.85-3.5,7.38-6.06,15.19-9.37,22.67-12.3,27.72-33.51,42.82-64,43.37-23.12.43-46.27-.14-69.41-.4-34.87-.4-69.75-1.05-104.63-1.33-28.13-.22-56.26-.13-84.4,0q-87,.33-174.1.8H101.91c.92-3.18,1.24-5.5,2.22-7.49q39.1-78.9,78.33-157.73c1.11-2.23,2.32-4.4,3.48-6.61,5.52-10.48,14.34-15.35,26.05-15.35q191.76,0,383.54,0,34.19,0,68.36.45C667.93,865.2,672,866.25,677.84,867.11Z" transform="translate(-101.91 -350.96)"/><path class="cls-1" d="M1396.74,1051.85h-13.45c-30.64,0-61.27-.06-91.91,0q-116,.24-231.89.54c-32.76,0-65.53-.35-98.29-.56-2.14,0-4.27-.2-6.4-.22-17.55-.18-29.32-7.61-38-23.85-27.31-51.18-56.06-101.59-84.21-152.31-1.48-2.67-2.61-5.53-4.3-9.16a62.06,62.06,0,0,1,7-1.19c8.18-.34,16.37-.74,24.55-.75q127.19-.08,254.36-.06c48.44,0,96.88-.36,145.32-.55,2.85,0,5.7,0,8.55,0,17.28-.09,30,7.42,38.17,22.7,10.21,19.16,20.29,38.39,30.75,57.41,17.66,32.13,35.58,64.11,53.37,96.17C1392.24,1043.31,1394,1046.65,1396.74,1051.85Z" transform="translate(-101.91 -350.96)"/><path class="cls-1" d="M2391.53,1050.63c22.86-62.57,45.15-123.62,67.57-185h370.64c-.88,3.23-1.4,6-2.35,8.51q-28.87,78.09-57.88,156.14c-5.85,15.72-12.22,20-28.7,20l-335.59.34Z" transform="translate(-101.91 -350.96)"/><path class="cls-1" d="M5239.11,530.93c-1.89-.1-3.55-.19-5.08-.29-3.07-.18-5.73-.33-8.49-.34h-10.66l-31.39,0-31.37,0c-20,0-46.4,0-72.92-.28h-.41c-11.46,0-19.66,4.42-26.58,14.31-34.5,49.29-69.78,99.27-103.89,147.61l-3.84,5.43c3.76-14.65,7.52-29.19,11.22-43.5,9.27-35.85,18.85-72.93,28-109.67L4987,531H4812.69l-134.4,526.65h173.44l2.44-7.31c.25-.78.51-1.5.74-2.18.55-1.57,1.13-3.19,1.59-4.94l13.63-51.74q11.39-43.28,22.81-86.54c.25-.92.46-1.87.69-2.83a25.65,25.65,0,0,1,1.12-4c4.69-5.5,9.52-10.79,14.79-16.48l25.69,176.23h185.45L5118,1045c-.31-1.52-.59-2.91-.84-4.2-.54-2.74-1-5.1-1.62-7.56l-11.27-45.77c-16.88-68.58-34.34-139.48-51.8-209.17-1.22-4.88-.66-6.41,2-9.46,51-58,102.67-117.1,152.62-174.28l30.38-34.78c1.92-2.19,3.71-4.41,5.79-7,1.07-1.31,2.22-2.75,3.55-4.36L5260.31,532Zm-215.44,505.91c-23.07.22-46.16.05-69.85.05-9.81-67.53-19.47-133.93-29.34-201.8-3.24,2.86-5.68,4.69-7.74,6.89-11.9,12.76-23.59,25.7-35.61,38.34a31.82,31.82,0,0,0-7.88,14.76c-11.2,43.39-22.67,86.72-34.09,130.07-.89,3.41-2,6.78-3.33,11.25H4708.42c-.48-.56-.73-.79-.93-1.07s-.55-.63-.52-.91a52.93,52.93,0,0,1,1-6.3q60.68-237.72,121.53-475.85H4959.6c-19.52,76-38.82,151.17-58.12,226.35,12.57,3.12,12.53,2.94,18.6-6.69,7.59-12,15.2-24.1,23.39-35.73,41.16-58.55,82.63-116.88,123.66-175.51,4.58-6.56,9.2-9.33,17.35-9.23,39.19.45,78.38.2,117.57.2h13.25c-3.71,4.58-5.93,7.47-8.33,10.22q-70.28,80.43-140.6,160.82c-11,12.6-21.78,25.44-33.15,37.7-4.46,4.8-5,9.1-3.5,15.25q30.78,123.21,61.08,246.55c1,4.11,1.89,8.27,3.16,13.84C5070.2,1037.82,5046.91,1036.61,5023.67,1036.84Z" transform="translate(-101.91 -350.96)"/><path class="cls-1" d="M5229.47,552.7c2.72-3.1,5.24-6.37,9.11-11.09-5.59-.28-9.32-.61-13.05-.62-48.81,0-97.63.22-146.43-.23-8.58-.08-13.39,3-18.13,9.75q-67.06,95.84-134.71,191.27a27.34,27.34,0,0,1-1.83,2.63,46.76,46.76,0,0,1-3.72,3.13c17.47-69.66,35.54-137.19,52.58-205.88H4821c-43,168.54-85.9,336.55-128.95,505.27h152c.83-2.5,1.6-4.45,2.14-6.47q18.23-69.13,36.44-138.29c1-3.74,1.54-8.15,3.89-10.9,9.17-10.73,19-20.92,30.4-33.33,9.44,64.74,18.49,126.83,27.59,189.18h163.07c-1-4.6-1.54-8-2.38-11.37q-31.4-127.49-63.06-254.9c-1.94-7.78-1-13,4.38-19.13Q5138.25,657.44,5229.47,552.7ZM5029.72,775.65q30.78,123.21,61.08,246.55c1,4.11,1.89,8.27,3.16,13.84-23.76,1.78-47.05.57-70.29.8-23.07.22-46.16.05-69.85.05-9.81-67.53-19.47-133.93-29.34-201.8-3.24,2.86-5.68,4.69-7.74,6.89-11.9,12.76-23.59,25.7-35.61,38.34a31.82,31.82,0,0,0-7.88,14.76c-11.2,43.39-22.67,86.72-34.09,130.07-.89,3.41-2,6.78-3.33,11.25H4708.42c-.48-.56-.73-.79-.93-1.07s-.55-.63-.52-.91a52.93,52.93,0,0,1,1-6.3q60.68-237.72,121.53-475.85H4959.6c-19.52,76-38.82,151.17-58.12,226.35,12.57,3.12,12.53,2.94,18.6-6.69,7.59-12,15.2-24.1,23.39-35.73,41.16-58.55,82.63-116.88,123.66-175.51,4.58-6.56,9.2-9.33,17.35-9.23,39.19.45,78.38.2,117.57.2h13.25c-3.71,4.58-5.93,7.47-8.33,10.22q-70.28,80.43-140.6,160.82c-11,12.6-21.78,25.44-33.15,37.7C5028.76,765.2,5028.18,769.5,5029.72,775.65Z" transform="translate(-101.91 -350.96)"/><path class="cls-1" d="M5563.47,657.42l33.62-126.6h-324.9l-134.43,526.69h335.5l33.64-127.46H5348.15l22.65-83.59h138.57l2-8.05c2.92-11.45,5.93-22.94,8.85-34.06,5.79-22.06,11.76-44.85,17.16-68l3.06-13.12h-83.35c-3.58,0-7.18,0-10.76,0l-10.67,0c-5.27,0-9.6,0-13.63-.1l-3,0c-2.58,0-5.16.05-7.66.09s-4.95.11-7.4.11l-2.71,0L5420,657.42ZM5373,744.54h140.45c-7,27.34-13.74,53.36-20.72,80.49H5354.39c-11.46,42.1-22.63,83.17-34.22,125.75,13.85,1.2,26.85.44,39.78.58,13.19.12,26.37,0,39.55,0H5479c-7.64,29-14.93,56.66-22.34,84.81H5165.38c41.31-161.87,82.34-322.68,123.47-483.83h280.33c-7.55,28.33-14.84,55.71-22.34,83.87H5403.62Z" transform="translate(-101.91 -350.96)"/><path class="cls-1" d="M5555.25,646.73c9.36-35.28,18.53-69.79,27.94-105.21H5280.48c-43.07,168.8-85.95,336.78-129,505.3H5465c9.28-35.2,18.41-69.79,28-106.08H5334.18c9.71-35.84,18.95-69.93,28.45-105h138.42c8.72-34.25,17.89-67.26,26-101.83h-69.88c-11.75,0-23.51.16-35.26-.05-11.14-.2-22.38,1-34.42-1,8.31-29.23,16.33-57.46,24.5-86.19ZM5373,744.54h140.45c-7,27.34-13.74,53.36-20.72,80.49H5354.39c-11.46,42.1-22.63,83.17-34.22,125.75,13.85,1.2,26.85.44,39.78.58,13.19.12,26.37,0,39.55,0H5479c-7.64,29-14.93,56.66-22.34,84.81H5165.38c41.31-161.87,82.34-322.68,123.47-483.83h280.33c-7.55,28.33-14.84,55.71-22.34,83.87H5403.62Z" transform="translate(-101.91 -350.96)"/><path class="cls-1" d="M4427.36,721.27c12.76-20.3,18.85-45.14,17.12-69.94-1.75-25.27-11.52-48.78-27.53-66.23-12.43-13.54-28-24.52-47.71-33.55-28.18-12.93-60.36-20-101.28-22.33-15.53-.87-31.57-1.32-47.66-1.32-26.84,0-55.11,1.24-84,3.68-12.32,1-24.77,2.59-36.81,4.08-5.57.69-11.16,1.39-16.82,2l-7.3.85L3944.45,1052l11.75,1.73,3.37.5c1.71.25,2.88.44,4.06.58,44.14,5.38,88.82,5.92,134.52,6h2.17c36.29,0,68.46-2,98.37-6.25,43.42-6.1,77.9-15.8,108.53-30.51,34.78-16.72,60.53-38.29,78.75-65.94,18.58-28.22,24.69-58.68,18.13-90.52-7.21-35.06-26.52-61.78-57.48-79.58.92-.4,1.83-.8,2.73-1.22C4384.23,770.7,4409.75,749.27,4427.36,721.27Zm-63.18,230.44c-18.85,25.71-44.08,43.16-72.83,56-31.17,13.88-64,21.46-97.68,25.81-51,6.58-102.21,7-153.49,4.75q-27.72-1.21-55.44-2.82c-4.15-.23-8.26-1.07-13.29-1.75,4-16.17,7.72-31.27,11.55-46.34q52.07-204.21,104.18-408.43c1.15-4.48,2.88-8.87,3.48-13.41.83-6.27,4.52-7.88,10.11-8.59a923.47,923.47,0,0,1,167.36-6.19c33.89,1.89,67.24,7.5,97.93,23.36a198.5,198.5,0,0,1,17.32,10.5c44.82,29.26,50.86,88.69,23.79,128.28-19,27.73-45.21,46-75.94,58.22-10.21,4.08-20.85,7.09-31.89,10.8v10.35c6.19,2,12.3,3.85,18.25,6.1,34.81,13.11,57.88,36.76,65.53,73.91C4389.17,901.61,4381.64,927.89,4364.18,951.71Z" transform="translate(-101.91 -350.96)"/><path class="cls-1" d="M4409.07,592.33c-12.47-13.59-27.65-23.42-44.29-31.07-30.9-14.17-63.88-19.48-97.42-21.36-43.42-2.44-86.84-1.31-130.16,2.34-17.66,1.49-35.23,4-53.29,6.09-42.11,165.16-84,329.39-126.17,494.78,3.72.54,5.45.84,7.19,1,44.26,5.41,88.78,5.86,133.24,5.95,33.08.08,66.18-1.53,99-6.13,36.45-5.12,72-13.52,105.39-29.58,30.07-14.45,55.89-34,74.44-62.17,16.63-25.23,22.72-52.75,16.61-82.49-7.5-36.42-28.93-61.91-62.33-77.67-3.26-1.53-6.52-3-10.77-5,9.23-3.77,16.93-6.56,24.34-10,30-13.83,55.56-33.08,73.42-61.47C4442,677.87,4439,625,4409.07,592.33Zm-1.9,120.51c-19,27.73-45.21,46-75.94,58.22-10.21,4.08-20.85,7.09-31.89,10.8v10.35c6.19,2,12.3,3.85,18.25,6.1,34.81,13.11,57.88,36.76,65.53,73.91,6.05,29.39-1.48,55.67-18.94,79.49-18.85,25.71-44.08,43.16-72.83,56-31.17,13.88-64,21.46-97.68,25.81-51,6.58-102.21,7-153.49,4.75q-27.72-1.21-55.44-2.82c-4.15-.23-8.26-1.07-13.29-1.75,4-16.17,7.72-31.27,11.55-46.34q52.07-204.21,104.18-408.43c1.15-4.48,2.88-8.87,3.48-13.41.83-6.27,4.52-7.88,10.11-8.59a923.47,923.47,0,0,1,167.36-6.19c33.89,1.89,67.24,7.5,97.93,23.36a198.5,198.5,0,0,1,17.32,10.5C4428.2,613.82,4434.24,673.25,4407.17,712.84Z" transform="translate(-101.91 -350.96)"/><path class="cls-1" d="M4550.6,530.93l-134.39,526.59H4594.7l134.41-526.59Zm-106.8,505.33q62-243,123.56-484.1h132.17c.35,8.15-116.11,467.9-122.54,484.1Z" transform="translate(-101.91 -350.96)"/><path class="cls-1" d="M4558.91,541.62C4516,709.89,4473.11,877.81,4430,1046.83h156.42c43-168.35,85.85-336.31,129-505.21ZM4577,1036.26H4443.8q62-243,123.56-484.1h132.17C4699.88,560.31,4583.42,1020.06,4577,1036.26Z" transform="translate(-101.91 -350.96)"/><path class="cls-1" d="M4208.26,820.16c-17.66-4.95-35.77-4.83-54.63-3.76-12.93,49.26-25.79,98.29-39.06,148.84,16.62,0,31.82.51,47-.12a106.83,106.83,0,0,0,47.83-13.57c26.44-14.73,41.83-36.63,43-67.67C4253.63,852.37,4237.34,828.29,4208.26,820.16Zm-50,123.57c-2.05.08-4.25.12-6.68.12-3,0-6-.05-9.16-.12l27.9-106.41c1.39,0,2.73,0,4,0,13.09,0,23.48,1.68,32.7,5.29,12.05,4.71,19.26,12.75,22.07,24.59,6.16,26-3,48.38-25.82,63A86.74,86.74,0,0,1,4164,943.37C4162.24,943.53,4160.35,943.66,4158.3,943.73Z" transform="translate(-101.91 -350.96)"/><path class="cls-1" d="M4208.26,820.16c-17.66-4.95-35.77-4.83-54.63-3.76-12.93,49.26-25.79,98.29-39.06,148.84,16.62,0,31.82.51,47-.12a106.83,106.83,0,0,0,47.83-13.57c26.44-14.73,41.83-36.63,43-67.67C4253.63,852.37,4237.34,828.29,4208.26,820.16Zm.83,119A97.49,97.49,0,0,1,4165,954c-11.53,1.06-23.21.2-36.37.2,11.21-42.8,22.24-84.85,33.36-127.26,17.18-1,33.41-.44,48.95,5.64,14.86,5.83,24.86,16.36,28.58,32.09C4247,896.24,4234.75,922.73,4209.09,939.16Z" transform="translate(-101.91 -350.96)"/><path class="cls-1" d="M4294.33,663.67c-2.47-24.08-18.72-42-42.89-44.78-13.28-1.55-26.9-.19-40.37-.19-6.42,0-9.2,3.37-10.61,9.49-5.59,24.25-11.61,48.4-17.47,72.6-3.59,14.82-7.21,29.65-11.41,46.94,16.57-.74,31.57-.4,46.26-2.4a135.43,135.43,0,0,0,34.79-9.44C4282.39,723.17,4297.64,695.77,4294.33,663.67Zm-95.27,62L4220,639.36a101,101,0,0,1,13.12-.89A86.59,86.59,0,0,1,4249.6,640c13.45,2.6,22.24,12.64,23.5,26.84,1.9,21.48-7.55,38.59-26.61,48.17C4233,721.82,4217.85,725.22,4199.06,725.65Z" transform="translate(-101.91 -350.96)"/><path class="cls-1" d="M4294.33,663.67c-2.47-24.08-18.72-42-42.89-44.78-13.28-1.55-26.9-.19-40.37-.19-6.42,0-9.2,3.37-10.61,9.49-5.59,24.25-11.61,48.4-17.47,72.6-3.59,14.82-7.21,29.65-11.41,46.94,16.57-.74,31.57-.4,46.26-2.4a135.43,135.43,0,0,0,34.79-9.44C4282.39,723.17,4297.64,695.77,4294.33,663.67Zm-43,60.92c-20.26,10.19-42,12.57-65.8,11.6,8.66-35.7,17.15-70.7,25.77-106.22,14.22-2.74,27.28-3,40.35-.43,18.14,3.5,30.45,17.52,32.13,36.39C4286,691.6,4274.32,713,4251.3,724.59Z" transform="translate(-101.91 -350.96)"/></svg>